<?xml version="1.0" encoding="utf-8" standalone="no"?>
<!DOCTYPE svg PUBLIC "-//W3C//DTD SVG 1.1//EN"
  "http://www.w3.org/Graphics/SVG/1.1/DTD/svg11.dtd">
<!-- Created with matplotlib (http://matplotlib.sourceforge.net/) -->
<svg height="441pt" version="1.1" viewBox="0 0 585 441" width="585pt" xmlns="http://www.w3.org/2000/svg" xmlns:xlink="http://www.w3.org/1999/xlink">
 <defs>
  <style type="text/css">
*{stroke-linecap:square;stroke-linejoin:round;}
  </style>
 </defs>
 <g id="figure_1">
  <g id="patch_1">
   <path d="
M0 441
L585 441
L585 0
L0 0
z
" style="fill:#ffffff;"/>
  </g>
  <g id="axes_1">
   <g id="patch_2">
    <path d="
M73.125 204.464
L279.205 204.464
L279.205 44.1
L73.125 44.1
z
" style="fill:#ffffff;"/>
   </g>
   <g id="line2d_1">
    <path clip-path="url(#p82c402b4a7)" d="
M63.7577 161.593
L73.125 162.128
L82.4923 162.555
L91.8595 162.983
L101.227 163.304
L110.594 163.304
L119.961 162.235
L129.329 160.952
L138.696 158.065
L148.063 155.927
L157.43 153.575
L166.798 151.757
L176.165 150.581
L185.532 150.047
L194.899 152.72
L204.267 152.399
L213.634 153.789
L223.001 154.858
L232.368 156.355
L241.736 157.637
L251.103 158.493
L260.47 159.883" style="fill:none;stroke:#ffa500;stroke-width:0.5;"/>
   </g>
   <g id="line2d_2">
    <path clip-path="url(#p82c402b4a7)" d="
M63.7577 167.473
L73.125 167.901
L82.4923 168.115
L91.8595 168.649
L101.227 168.756
L110.594 168.756
L119.961 167.58
L129.329 165.442
L138.696 164.052
L148.063 161.807
L157.43 159.883
L166.798 157.637
L176.165 156.141
L185.532 155.179
L194.899 156.675
L204.267 157.424
L213.634 158.92
L223.001 160.417
L232.368 161.914
L241.736 163.411
L251.103 164.373
L260.47 165.228" style="fill:none;stroke:#ff0000;stroke-width:0.5;"/>
   </g>
   <g id="line2d_3">
    <path clip-path="url(#p82c402b4a7)" d="
M63.7577 172.284
L73.125 173.032
L82.4923 173.46
L91.8595 174.101
L101.227 174.208
L110.594 174.743
L119.961 174.208
L129.329 172.712
L138.696 170.787
L148.063 168.649
L157.43 166.404
L166.798 164.48
L176.165 163.09
L185.532 161.272
L194.899 163.09
L204.267 163.945
L213.634 165.121
L223.001 166.404
L232.368 167.901
L241.736 169.184
L251.103 170.039
L260.47 170.787" style="fill:none;stroke:#8b0000;stroke-width:0.5;"/>
   </g>
   <g id="line2d_4">
    <path clip-path="url(#p82c402b4a7)" d="
M63.7577 191.635
L73.125 192.276
L82.4923 192.811
L91.8595 193.238
L101.227 193.773
L110.594 194.307
L119.961 194.2
L129.329 193.345
L138.696 191.421
L148.063 189.283
L157.43 187.144
L166.798 185.434
L176.165 184.151
L185.532 183.403
L194.899 183.83
L204.267 184.258
L213.634 185.434
L223.001 186.61
L232.368 187.893
L241.736 188.855
L251.103 190.031
L260.47 190.993" style="fill:none;stroke:#ee82ee;stroke-width:0.5;"/>
   </g>
   <g id="line2d_5">
    <path clip-path="url(#p82c402b4a7)" d="
M63.7577 201.577
L73.125 201.684
L82.4923 201.791
L91.8595 201.898
L101.227 202.112
L110.594 202.432
L119.961 202.646
L129.329 202.646
L138.696 201.898
L148.063 200.936
L157.43 199.546
L166.798 198.263
L176.165 197.301
L185.532 196.98
L194.899 197.301
L204.267 197.835
L213.634 199.011
L223.001 200.401
L232.368 200.829
L241.736 201.043
L251.103 201.363
L260.47 201.47" style="fill:none;stroke:#00008b;stroke-width:0.5;"/>
   </g>
   <g id="matplotlib.axis_1">
    <g id="xtick_1">
     <g id="line2d_6">
      <defs>
       <path d="
M0 0
L0 -4" id="m0012dd4eef" style="stroke:#000000;stroke-linecap:butt;stroke-width:0.5;"/>
      </defs>
      <g>
       <use style="stroke:#000000;stroke-linecap:butt;stroke-width:0.5;" x="119.961260331" xlink:href="#m0012dd4eef" y="204.463636364"/>
      </g>
     </g>
     <g id="line2d_7">
      <defs>
       <path d="
M0 0
L0 4" id="m476344969c" style="stroke:#000000;stroke-linecap:butt;stroke-width:0.5;"/>
      </defs>
      <g>
       <use style="stroke:#000000;stroke-linecap:butt;stroke-width:0.5;" x="119.961260331" xlink:href="#m476344969c" y="44.1"/>
      </g>
     </g>
     <g id="text_1">
      <!-- 6 -->
      <defs>
       <path d="
M33.0156 40.375
Q26.375 40.375 22.4844 35.8281
Q18.6094 31.2969 18.6094 23.3906
Q18.6094 15.5312 22.4844 10.9531
Q26.375 6.39062 33.0156 6.39062
Q39.6562 6.39062 43.5312 10.9531
Q47.4062 15.5312 47.4062 23.3906
Q47.4062 31.2969 43.5312 35.8281
Q39.6562 40.375 33.0156 40.375
M52.5938 71.2969
L52.5938 62.3125
Q48.875 64.0625 45.0938 64.9844
Q41.3125 65.9219 37.5938 65.9219
Q27.8281 65.9219 22.6719 59.3281
Q17.5312 52.7344 16.7969 39.4062
Q19.6719 43.6562 24.0156 45.9219
Q28.375 48.1875 33.5938 48.1875
Q44.5781 48.1875 50.9531 41.5156
Q57.3281 34.8594 57.3281 23.3906
Q57.3281 12.1562 50.6875 5.35938
Q44.0469 -1.42188 33.0156 -1.42188
Q20.3594 -1.42188 13.6719 8.26562
Q6.98438 17.9688 6.98438 36.375
Q6.98438 53.6562 15.1875 63.9375
Q23.3906 74.2188 37.2031 74.2188
Q40.9219 74.2188 44.7031 73.4844
Q48.4844 72.75 52.5938 71.2969" id="DejaVuSans-36"/>
      </defs>
      <g transform="translate(116.940635331 217.369886364)scale(0.12 -0.12)">
       <use xlink:href="#DejaVuSans-36"/>
      </g>
     </g>
    </g>
    <g id="xtick_2">
     <g id="line2d_8">
      <g>
       <use style="stroke:#000000;stroke-linecap:butt;stroke-width:0.5;" x="176.164772727" xlink:href="#m0012dd4eef" y="204.463636364"/>
      </g>
     </g>
     <g id="line2d_9">
      <g>
       <use style="stroke:#000000;stroke-linecap:butt;stroke-width:0.5;" x="176.164772727" xlink:href="#m476344969c" y="44.1"/>
      </g>
     </g>
     <g id="text_2">
      <!-- 12 -->
      <defs>
       <path d="
M12.4062 8.29688
L28.5156 8.29688
L28.5156 63.9219
L10.9844 60.4062
L10.9844 69.3906
L28.4219 72.9062
L38.2812 72.9062
L38.2812 8.29688
L54.3906 8.29688
L54.3906 0
L12.4062 0
z
" id="DejaVuSans-31"/>
       <path d="
M19.1875 8.29688
L53.6094 8.29688
L53.6094 0
L7.32812 0
L7.32812 8.29688
Q12.9375 14.1094 22.625 23.8906
Q32.3281 33.6875 34.8125 36.5312
Q39.5469 41.8438 41.4219 45.5312
Q43.3125 49.2188 43.3125 52.7812
Q43.3125 58.5938 39.2344 62.25
Q35.1562 65.9219 28.6094 65.9219
Q23.9688 65.9219 18.8125 64.3125
Q13.6719 62.7031 7.8125 59.4219
L7.8125 69.3906
Q13.7656 71.7812 18.9375 73
Q24.125 74.2188 28.4219 74.2188
Q39.75 74.2188 46.4844 68.5469
Q53.2188 62.8906 53.2188 53.4219
Q53.2188 48.9219 51.5312 44.8906
Q49.8594 40.875 45.4062 35.4062
Q44.1875 33.9844 37.6406 27.2188
Q31.1094 20.4531 19.1875 8.29688" id="DejaVuSans-32"/>
      </defs>
      <g transform="translate(169.789772727 217.369886364)scale(0.12 -0.12)">
       <use xlink:href="#DejaVuSans-31"/>
       <use x="63.623046875" xlink:href="#DejaVuSans-32"/>
      </g>
     </g>
    </g>
    <g id="xtick_3">
     <g id="line2d_10">
      <g>
       <use style="stroke:#000000;stroke-linecap:butt;stroke-width:0.5;" x="232.368285124" xlink:href="#m0012dd4eef" y="204.463636364"/>
      </g>
     </g>
     <g id="line2d_11">
      <g>
       <use style="stroke:#000000;stroke-linecap:butt;stroke-width:0.5;" x="232.368285124" xlink:href="#m476344969c" y="44.1"/>
      </g>
     </g>
     <g id="text_3">
      <!-- 18 -->
      <defs>
       <path d="
M31.7812 34.625
Q24.75 34.625 20.7188 30.8594
Q16.7031 27.0938 16.7031 20.5156
Q16.7031 13.9219 20.7188 10.1562
Q24.75 6.39062 31.7812 6.39062
Q38.8125 6.39062 42.8594 10.1719
Q46.9219 13.9688 46.9219 20.5156
Q46.9219 27.0938 42.8906 30.8594
Q38.875 34.625 31.7812 34.625
M21.9219 38.8125
Q15.5781 40.375 12.0312 44.7188
Q8.5 49.0781 8.5 55.3281
Q8.5 64.0625 14.7188 69.1406
Q20.9531 74.2188 31.7812 74.2188
Q42.6719 74.2188 48.875 69.1406
Q55.0781 64.0625 55.0781 55.3281
Q55.0781 49.0781 51.5312 44.7188
Q48 40.375 41.7031 38.8125
Q48.8281 37.1562 52.7969 32.3125
Q56.7812 27.4844 56.7812 20.5156
Q56.7812 9.90625 50.3125 4.23438
Q43.8438 -1.42188 31.7812 -1.42188
Q19.7344 -1.42188 13.25 4.23438
Q6.78125 9.90625 6.78125 20.5156
Q6.78125 27.4844 10.7812 32.3125
Q14.7969 37.1562 21.9219 38.8125
M18.3125 54.3906
Q18.3125 48.7344 21.8438 45.5625
Q25.3906 42.3906 31.7812 42.3906
Q38.1406 42.3906 41.7188 45.5625
Q45.3125 48.7344 45.3125 54.3906
Q45.3125 60.0625 41.7188 63.2344
Q38.1406 66.4062 31.7812 66.4062
Q25.3906 66.4062 21.8438 63.2344
Q18.3125 60.0625 18.3125 54.3906" id="DejaVuSans-38"/>
      </defs>
      <g transform="translate(225.802972624 217.369886364)scale(0.12 -0.12)">
       <use xlink:href="#DejaVuSans-31"/>
       <use x="63.623046875" xlink:href="#DejaVuSans-38"/>
      </g>
     </g>
    </g>
   </g>
   <g id="matplotlib.axis_2">
    <g id="ytick_1">
     <g id="line2d_12">
      <defs>
       <path d="
M0 0
L4 0" id="me8a85f7bf6" style="stroke:#000000;stroke-linecap:butt;stroke-width:0.5;"/>
      </defs>
      <g>
       <use style="stroke:#000000;stroke-linecap:butt;stroke-width:0.5;" x="73.125" xlink:href="#me8a85f7bf6" y="151.009090909"/>
      </g>
     </g>
     <g id="line2d_13">
      <defs>
       <path d="
M0 0
L-4 0" id="m1a32005dea" style="stroke:#000000;stroke-linecap:butt;stroke-width:0.5;"/>
      </defs>
      <g>
       <use style="stroke:#000000;stroke-linecap:butt;stroke-width:0.5;" x="279.204545455" xlink:href="#m1a32005dea" y="151.009090909"/>
      </g>
     </g>
     <g id="text_4">
      <!-- 10 -->
      <defs>
       <path d="
M31.7812 66.4062
Q24.1719 66.4062 20.3281 58.9062
Q16.5 51.4219 16.5 36.375
Q16.5 21.3906 20.3281 13.8906
Q24.1719 6.39062 31.7812 6.39062
Q39.4531 6.39062 43.2812 13.8906
Q47.125 21.3906 47.125 36.375
Q47.125 51.4219 43.2812 58.9062
Q39.4531 66.4062 31.7812 66.4062
M31.7812 74.2188
Q44.0469 74.2188 50.5156 64.5156
Q56.9844 54.8281 56.9844 36.375
Q56.9844 17.9688 50.5156 8.26562
Q44.0469 -1.42188 31.7812 -1.42188
Q19.5312 -1.42188 13.0625 8.26562
Q6.59375 17.9688 6.59375 36.375
Q6.59375 54.8281 13.0625 64.5156
Q19.5312 74.2188 31.7812 74.2188" id="DejaVuSans-30"/>
      </defs>
      <g transform="translate(55.97 155.376903409)scale(0.12 -0.12)">
       <use xlink:href="#DejaVuSans-31"/>
       <use x="63.623046875" xlink:href="#DejaVuSans-30"/>
      </g>
     </g>
    </g>
    <g id="ytick_2">
     <g id="line2d_14">
      <g>
       <use style="stroke:#000000;stroke-linecap:butt;stroke-width:0.5;" x="73.125" xlink:href="#me8a85f7bf6" y="97.5545454545"/>
      </g>
     </g>
     <g id="line2d_15">
      <g>
       <use style="stroke:#000000;stroke-linecap:butt;stroke-width:0.5;" x="279.204545455" xlink:href="#m1a32005dea" y="97.5545454545"/>
      </g>
     </g>
     <g id="text_5">
      <!-- 15 -->
      <defs>
       <path d="
M10.7969 72.9062
L49.5156 72.9062
L49.5156 64.5938
L19.8281 64.5938
L19.8281 46.7344
Q21.9688 47.4688 24.1094 47.8281
Q26.2656 48.1875 28.4219 48.1875
Q40.625 48.1875 47.75 41.5
Q54.8906 34.8125 54.8906 23.3906
Q54.8906 11.625 47.5625 5.09375
Q40.2344 -1.42188 26.9062 -1.42188
Q22.3125 -1.42188 17.5469 -0.640625
Q12.7969 0.140625 7.71875 1.70312
L7.71875 11.625
Q12.1094 9.23438 16.7969 8.0625
Q21.4844 6.89062 26.7031 6.89062
Q35.1562 6.89062 40.0781 11.3281
Q45.0156 15.7656 45.0156 23.3906
Q45.0156 31 40.0781 35.4375
Q35.1562 39.8906 26.7031 39.8906
Q22.75 39.8906 18.8125 39.0156
Q14.8906 38.1406 10.7969 36.2812
z
" id="DejaVuSans-35"/>
      </defs>
      <g transform="translate(56.22125 101.843607955)scale(0.12 -0.12)">
       <use xlink:href="#DejaVuSans-31"/>
       <use x="63.623046875" xlink:href="#DejaVuSans-35"/>
      </g>
     </g>
    </g>
    <g id="ytick_3">
     <g id="line2d_16">
      <g>
       <use style="stroke:#000000;stroke-linecap:butt;stroke-width:0.5;" x="73.125" xlink:href="#me8a85f7bf6" y="44.1"/>
      </g>
     </g>
     <g id="line2d_17">
      <g>
       <use style="stroke:#000000;stroke-linecap:butt;stroke-width:0.5;" x="279.204545455" xlink:href="#m1a32005dea" y="44.1"/>
      </g>
     </g>
     <g id="text_6">
      <!-- 20 -->
      <g transform="translate(55.53125 48.4678125)scale(0.12 -0.12)">
       <use xlink:href="#DejaVuSans-32"/>
       <use x="63.623046875" xlink:href="#DejaVuSans-30"/>
      </g>
     </g>
    </g>
    <g id="text_7">
     <!-- water temperature -->
     <defs>
      <path d="
M52 44.1875
Q55.375 50.25 60.0625 53.125
Q64.75 56 71.0938 56
Q79.6406 56 84.2812 50.0156
Q88.9219 44.0469 88.9219 33.0156
L88.9219 0
L79.8906 0
L79.8906 32.7188
Q79.8906 40.5781 77.0938 44.375
Q74.3125 48.1875 68.6094 48.1875
Q61.625 48.1875 57.5625 43.5469
Q53.5156 38.9219 53.5156 30.9062
L53.5156 0
L44.4844 0
L44.4844 32.7188
Q44.4844 40.625 41.7031 44.4062
Q38.9219 48.1875 33.1094 48.1875
Q26.2188 48.1875 22.1562 43.5312
Q18.1094 38.875 18.1094 30.9062
L18.1094 0
L9.07812 0
L9.07812 54.6875
L18.1094 54.6875
L18.1094 46.1875
Q21.1875 51.2188 25.4844 53.6094
Q29.7812 56 35.6875 56
Q41.6562 56 45.8281 52.9688
Q50 49.9531 52 44.1875" id="DejaVuSans-6d"/>
      <path d="
M34.2812 27.4844
Q23.3906 27.4844 19.1875 25
Q14.9844 22.5156 14.9844 16.5
Q14.9844 11.7188 18.1406 8.90625
Q21.2969 6.10938 26.7031 6.10938
Q34.1875 6.10938 38.7031 11.4062
Q43.2188 16.7031 43.2188 25.4844
L43.2188 27.4844
z

M52.2031 31.2031
L52.2031 0
L43.2188 0
L43.2188 8.29688
Q40.1406 3.32812 35.5469 0.953125
Q30.9531 -1.42188 24.3125 -1.42188
Q15.9219 -1.42188 10.9531 3.29688
Q6 8.01562 6 15.9219
Q6 25.1406 12.1719 29.8281
Q18.3594 34.5156 30.6094 34.5156
L43.2188 34.5156
L43.2188 35.4062
Q43.2188 41.6094 39.1406 45
Q35.0625 48.3906 27.6875 48.3906
Q23 48.3906 18.5469 47.2656
Q14.1094 46.1406 10.0156 43.8906
L10.0156 52.2031
Q14.9375 54.1094 19.5781 55.0469
Q24.2188 56 28.6094 56
Q40.4844 56 46.3438 49.8438
Q52.2031 43.7031 52.2031 31.2031" id="DejaVuSans-61"/>
      <path id="DejaVuSans-20"/>
      <path d="
M8.5 21.5781
L8.5 54.6875
L17.4844 54.6875
L17.4844 21.9219
Q17.4844 14.1562 20.5 10.2656
Q23.5312 6.39062 29.5938 6.39062
Q36.8594 6.39062 41.0781 11.0312
Q45.3125 15.6719 45.3125 23.6875
L45.3125 54.6875
L54.2969 54.6875
L54.2969 0
L45.3125 0
L45.3125 8.40625
Q42.0469 3.42188 37.7188 1
Q33.4062 -1.42188 27.6875 -1.42188
Q18.2656 -1.42188 13.375 4.4375
Q8.5 10.2969 8.5 21.5781
M31.1094 56
z
" id="DejaVuSans-75"/>
      <path d="
M18.3125 70.2188
L18.3125 54.6875
L36.8125 54.6875
L36.8125 47.7031
L18.3125 47.7031
L18.3125 18.0156
Q18.3125 11.3281 20.1406 9.42188
Q21.9688 7.51562 27.5938 7.51562
L36.8125 7.51562
L36.8125 0
L27.5938 0
Q17.1875 0 13.2344 3.875
Q9.28125 7.76562 9.28125 18.0156
L9.28125 47.7031
L2.6875 47.7031
L2.6875 54.6875
L9.28125 54.6875
L9.28125 70.2188
z
" id="DejaVuSans-74"/>
      <path d="
M4.20312 54.6875
L13.1875 54.6875
L24.4219 12.0156
L35.5938 54.6875
L46.1875 54.6875
L57.4219 12.0156
L68.6094 54.6875
L77.5938 54.6875
L63.2812 0
L52.6875 0
L40.9219 44.8281
L29.1094 0
L18.5 0
z
" id="DejaVuSans-77"/>
      <path d="
M56.2031 29.5938
L56.2031 25.2031
L14.8906 25.2031
Q15.4844 15.9219 20.4844 11.0625
Q25.4844 6.20312 34.4219 6.20312
Q39.5938 6.20312 44.4531 7.46875
Q49.3125 8.73438 54.1094 11.2812
L54.1094 2.78125
Q49.2656 0.734375 44.1875 -0.34375
Q39.1094 -1.42188 33.8906 -1.42188
Q20.7969 -1.42188 13.1562 6.1875
Q5.51562 13.8125 5.51562 26.8125
Q5.51562 40.2344 12.7656 48.1094
Q20.0156 56 32.3281 56
Q43.3594 56 49.7812 48.8906
Q56.2031 41.7969 56.2031 29.5938
M47.2188 32.2344
Q47.125 39.5938 43.0938 43.9844
Q39.0625 48.3906 32.4219 48.3906
Q24.9062 48.3906 20.3906 44.1406
Q15.875 39.8906 15.1875 32.1719
z
" id="DejaVuSans-65"/>
      <path d="
M18.1094 8.20312
L18.1094 -20.7969
L9.07812 -20.7969
L9.07812 54.6875
L18.1094 54.6875
L18.1094 46.3906
Q20.9531 51.2656 25.2656 53.625
Q29.5938 56 35.5938 56
Q45.5625 56 51.7812 48.0938
Q58.0156 40.1875 58.0156 27.2969
Q58.0156 14.4062 51.7812 6.48438
Q45.5625 -1.42188 35.5938 -1.42188
Q29.5938 -1.42188 25.2656 0.953125
Q20.9531 3.32812 18.1094 8.20312
M48.6875 27.2969
Q48.6875 37.2031 44.6094 42.8438
Q40.5312 48.4844 33.4062 48.4844
Q26.2656 48.4844 22.1875 42.8438
Q18.1094 37.2031 18.1094 27.2969
Q18.1094 17.3906 22.1875 11.75
Q26.2656 6.10938 33.4062 6.10938
Q40.5312 6.10938 44.6094 11.75
Q48.6875 17.3906 48.6875 27.2969" id="DejaVuSans-70"/>
      <path d="
M41.1094 46.2969
Q39.5938 47.1719 37.8125 47.5781
Q36.0312 48 33.8906 48
Q26.2656 48 22.1875 43.0469
Q18.1094 38.0938 18.1094 28.8125
L18.1094 0
L9.07812 0
L9.07812 54.6875
L18.1094 54.6875
L18.1094 46.1875
Q20.9531 51.1719 25.4844 53.5781
Q30.0312 56 36.5312 56
Q37.4531 56 38.5781 55.875
Q39.7031 55.7656 41.0625 55.5156
z
" id="DejaVuSans-72"/>
     </defs>
     <g transform="translate(50.53125 178.178693182)rotate(-90.0)scale(0.12 -0.12)">
      <use xlink:href="#DejaVuSans-77"/>
      <use x="81.787109375" xlink:href="#DejaVuSans-61"/>
      <use x="143.06640625" xlink:href="#DejaVuSans-74"/>
      <use x="182.275390625" xlink:href="#DejaVuSans-65"/>
      <use x="243.798828125" xlink:href="#DejaVuSans-72"/>
      <use x="284.912109375" xlink:href="#DejaVuSans-20"/>
      <use x="316.69921875" xlink:href="#DejaVuSans-74"/>
      <use x="355.908203125" xlink:href="#DejaVuSans-65"/>
      <use x="417.431640625" xlink:href="#DejaVuSans-6d"/>
      <use x="514.84375" xlink:href="#DejaVuSans-70"/>
      <use x="578.3203125" xlink:href="#DejaVuSans-65"/>
      <use x="639.84375" xlink:href="#DejaVuSans-72"/>
      <use x="680.95703125" xlink:href="#DejaVuSans-61"/>
      <use x="742.236328125" xlink:href="#DejaVuSans-74"/>
      <use x="781.4453125" xlink:href="#DejaVuSans-75"/>
      <use x="844.82421875" xlink:href="#DejaVuSans-72"/>
      <use x="883.6875" xlink:href="#DejaVuSans-65"/>
     </g>
    </g>
   </g>
   <g id="patch_3">
    <path d="
M73.125 44.1
L279.205 44.1" style="fill:none;stroke:#000000;"/>
   </g>
   <g id="patch_4">
    <path d="
M279.205 204.464
L279.205 44.1" style="fill:none;stroke:#000000;"/>
   </g>
   <g id="patch_5">
    <path d="
M73.125 204.464
L279.205 204.464" style="fill:none;stroke:#000000;"/>
   </g>
   <g id="patch_6">
    <path d="
M73.125 204.464
L73.125 44.1" style="fill:none;stroke:#000000;"/>
   </g>
   <g id="text_8">
    <!-- I -->
    <defs>
     <path d="
M9.8125 72.9062
L19.6719 72.9062
L19.6719 0
L9.8125 0
z
" id="DejaVuSans-49"/>
    </defs>
    <g transform="translate(251.102789256 44.1)scale(0.2 -0.2)">
     <use xlink:href="#DejaVuSans-49"/>
    </g>
   </g>
  </g>
  <g id="axes_2">
   <g id="patch_7">
    <path d="
M320.42 204.464
L526.5 204.464
L526.5 44.1
L320.42 44.1
z
" style="fill:#ffffff;"/>
   </g>
   <g id="line2d_18">
    <path clip-path="url(#pbe1cca2777)" d="
M311.053 115.088
L320.42 116.371
L329.788 117.547
L339.155 118.829
L348.522 119.578
L357.889 120.112
L367.257 119.899
L376.624 118.829
L385.991 116.157
L395.358 111.239
L404.726 106.321
L414.093 97.8753
L423.46 93.9196
L432.827 91.4607
L442.195 91.7815
L451.562 93.2782
L460.929 96.6993
L470.296 99.6927
L479.664 102.045
L489.031 104.824
L498.398 107.283
L507.765 109.528" style="fill:none;stroke:#ffa500;stroke-width:0.5;"/>
   </g>
   <g id="line2d_19">
    <path clip-path="url(#pbe1cca2777)" d="
M311.053 120.754
L320.42 122.785
L329.788 124.282
L339.155 125.885
L348.522 127.061
L357.889 127.917
L367.257 127.81
L376.624 126.634
L385.991 124.175
L395.358 119.364
L404.726 113.484
L414.093 105.038
L423.46 95.3095
L432.827 92.1022
L442.195 91.6745
L451.562 95.0956
L460.929 100.013
L470.296 103.541
L479.664 106.428
L489.031 109.315
L498.398 111.88
L507.765 114.446" style="fill:none;stroke:#ff0000;stroke-width:0.5;"/>
   </g>
   <g id="line2d_20">
    <path clip-path="url(#pbe1cca2777)" d="
M311.053 138.821
L320.42 140.639
L329.788 142.136
L339.155 143.739
L348.522 145.022
L357.889 145.984
L367.257 146.412
L376.624 145.771
L385.991 143.632
L395.358 139.891
L404.726 134.331
L414.093 127.596
L423.46 121.93
L432.827 117.226
L442.195 117.333
L451.562 119.578
L460.929 122.464
L470.296 124.923
L479.664 127.275
L489.031 129.52
L498.398 131.659
L507.765 133.69" style="fill:none;stroke:#8b0000;stroke-width:0.5;"/>
   </g>
   <g id="line2d_21">
    <path clip-path="url(#pbe1cca2777)" d="
M311.053 169.932
L320.42 171.322
L329.788 172.605
L339.155 173.781
L348.522 174.957
L357.889 175.812
L367.257 176.667
L376.624 176.667
L385.991 176.026
L395.358 173.781
L404.726 170.467
L414.093 165.228
L423.46 160.845
L432.827 157.103
L442.195 158.493
L451.562 158.279
L460.929 159.562
L470.296 160.952
L479.664 162.128
L489.031 163.624
L498.398 165.228
L507.765 167.152" style="fill:none;stroke:#ee82ee;stroke-width:0.5;"/>
   </g>
   <g id="line2d_22">
    <path clip-path="url(#pbe1cca2777)" d="
M311.053 190.672
L320.42 191.207
L329.788 191.635
L339.155 191.955
L348.522 192.169
L357.889 192.49
L367.257 193.024
L376.624 193.238
L385.991 192.597
L395.358 191.314
L404.726 188.962
L414.093 185.968
L423.46 183.509
L432.827 182.12
L442.195 181.906
L451.562 182.333
L460.929 183.082
L470.296 184.044
L479.664 184.899
L489.031 186.289
L498.398 187.465
L507.765 188.427" style="fill:none;stroke:#00008b;stroke-width:0.5;"/>
   </g>
   <g id="matplotlib.axis_3">
    <g id="xtick_4">
     <g id="line2d_23">
      <g>
       <use style="stroke:#000000;stroke-linecap:butt;stroke-width:0.5;" x="367.256714876" xlink:href="#m0012dd4eef" y="204.463636364"/>
      </g>
     </g>
     <g id="line2d_24">
      <g>
       <use style="stroke:#000000;stroke-linecap:butt;stroke-width:0.5;" x="367.256714876" xlink:href="#m476344969c" y="44.1"/>
      </g>
     </g>
     <g id="text_9">
      <!-- 6 -->
      <g transform="translate(364.236089876 217.369886364)scale(0.12 -0.12)">
       <use xlink:href="#DejaVuSans-36"/>
      </g>
     </g>
    </g>
    <g id="xtick_5">
     <g id="line2d_25">
      <g>
       <use style="stroke:#000000;stroke-linecap:butt;stroke-width:0.5;" x="423.460227273" xlink:href="#m0012dd4eef" y="204.463636364"/>
      </g>
     </g>
     <g id="line2d_26">
      <g>
       <use style="stroke:#000000;stroke-linecap:butt;stroke-width:0.5;" x="423.460227273" xlink:href="#m476344969c" y="44.1"/>
      </g>
     </g>
     <g id="text_10">
      <!-- 12 -->
      <g transform="translate(417.085227273 217.369886364)scale(0.12 -0.12)">
       <use xlink:href="#DejaVuSans-31"/>
       <use x="63.623046875" xlink:href="#DejaVuSans-32"/>
      </g>
     </g>
    </g>
    <g id="xtick_6">
     <g id="line2d_27">
      <g>
       <use style="stroke:#000000;stroke-linecap:butt;stroke-width:0.5;" x="479.663739669" xlink:href="#m0012dd4eef" y="204.463636364"/>
      </g>
     </g>
     <g id="line2d_28">
      <g>
       <use style="stroke:#000000;stroke-linecap:butt;stroke-width:0.5;" x="479.663739669" xlink:href="#m476344969c" y="44.1"/>
      </g>
     </g>
     <g id="text_11">
      <!-- 18 -->
      <g transform="translate(473.098427169 217.369886364)scale(0.12 -0.12)">
       <use xlink:href="#DejaVuSans-31"/>
       <use x="63.623046875" xlink:href="#DejaVuSans-38"/>
      </g>
     </g>
    </g>
   </g>
   <g id="matplotlib.axis_4">
    <g id="ytick_4">
     <g id="line2d_29">
      <g>
       <use style="stroke:#000000;stroke-linecap:butt;stroke-width:0.5;" x="320.420454545" xlink:href="#me8a85f7bf6" y="151.009090909"/>
      </g>
     </g>
     <g id="line2d_30">
      <g>
       <use style="stroke:#000000;stroke-linecap:butt;stroke-width:0.5;" x="526.5" xlink:href="#m1a32005dea" y="151.009090909"/>
      </g>
     </g>
     <g id="text_12">
      <!-- 10 -->
      <g transform="translate(303.265454545 155.376903409)scale(0.12 -0.12)">
       <use xlink:href="#DejaVuSans-31"/>
       <use x="63.623046875" xlink:href="#DejaVuSans-30"/>
      </g>
     </g>
    </g>
    <g id="ytick_5">
     <g id="line2d_31">
      <g>
       <use style="stroke:#000000;stroke-linecap:butt;stroke-width:0.5;" x="320.420454545" xlink:href="#me8a85f7bf6" y="97.5545454545"/>
      </g>
     </g>
     <g id="line2d_32">
      <g>
       <use style="stroke:#000000;stroke-linecap:butt;stroke-width:0.5;" x="526.5" xlink:href="#m1a32005dea" y="97.5545454545"/>
      </g>
     </g>
     <g id="text_13">
      <!-- 15 -->
      <g transform="translate(303.516704545 101.843607955)scale(0.12 -0.12)">
       <use xlink:href="#DejaVuSans-31"/>
       <use x="63.623046875" xlink:href="#DejaVuSans-35"/>
      </g>
     </g>
    </g>
    <g id="ytick_6">
     <g id="line2d_33">
      <g>
       <use style="stroke:#000000;stroke-linecap:butt;stroke-width:0.5;" x="320.420454545" xlink:href="#me8a85f7bf6" y="44.1"/>
      </g>
     </g>
     <g id="line2d_34">
      <g>
       <use style="stroke:#000000;stroke-linecap:butt;stroke-width:0.5;" x="526.5" xlink:href="#m1a32005dea" y="44.1"/>
      </g>
     </g>
     <g id="text_14">
      <!-- 20 -->
      <g transform="translate(302.826704545 48.4678125)scale(0.12 -0.12)">
       <use xlink:href="#DejaVuSans-32"/>
       <use x="63.623046875" xlink:href="#DejaVuSans-30"/>
      </g>
     </g>
    </g>
   </g>
   <g id="patch_8">
    <path d="
M320.42 44.1
L526.5 44.1" style="fill:none;stroke:#000000;"/>
   </g>
   <g id="patch_9">
    <path d="
M526.5 204.464
L526.5 44.1" style="fill:none;stroke:#000000;"/>
   </g>
   <g id="patch_10">
    <path d="
M320.42 204.464
L526.5 204.464" style="fill:none;stroke:#000000;"/>
   </g>
   <g id="patch_11">
    <path d="
M320.42 204.464
L320.42 44.1" style="fill:none;stroke:#000000;"/>
   </g>
   <g id="text_15">
    <!-- II -->
    <g transform="translate(498.398243802 44.1)scale(0.2 -0.2)">
     <use xlink:href="#DejaVuSans-49"/>
     <use x="29.4921875" xlink:href="#DejaVuSans-49"/>
    </g>
   </g>
  </g>
  <g id="axes_3">
   <g id="patch_12">
    <path d="
M73.125 396.9
L279.205 396.9
L279.205 236.536
L73.125 236.536
z
" style="fill:#ffffff;"/>
   </g>
   <g id="line2d_35">
    <path clip-path="url(#p1b7b43d6de)" d="
M63.7577 257.918
L73.125 258.987
L82.4923 259.629
L91.8595 260.377
L101.227 261.339
L110.594 262.195
L119.961 262.622
L129.329 262.195
L138.696 260.377
L148.063 259.094
L157.43 256.101
L166.798 252.893
L176.165 249.259
L185.532 247.013
L194.899 246.158
L204.267 245.517
L213.634 246.479
L223.001 247.762
L232.368 249.472
L241.736 251.183
L251.103 252.787
L260.47 254.069" style="fill:none;stroke:#ffa500;stroke-width:0.5;"/>
   </g>
   <g id="line2d_36">
    <path clip-path="url(#p1b7b43d6de)" d="
M63.7577 259.415
L73.125 260.805
L82.4923 262.515
L91.8595 263.798
L101.227 264.974
L110.594 266.15
L119.961 266.685
L129.329 266.364
L138.696 265.295
L148.063 262.943
L157.43 259.629
L166.798 255.032
L176.165 251.931
L185.532 249.579
L194.899 248.724
L204.267 249.152
L213.634 249.9
L223.001 250.541
L232.368 251.504
L241.736 252.466
L251.103 253.535
L260.47 254.497" style="fill:none;stroke:#ff0000;stroke-width:0.5;"/>
   </g>
   <g id="line2d_37">
    <path clip-path="url(#p1b7b43d6de)" d="
M63.7577 289.884
L73.125 291.274
L82.4923 292.343
L91.8595 293.412
L101.227 294.695
L110.594 295.657
L119.961 296.405
L129.329 296.619
L138.696 295.871
L148.063 293.947
L157.43 290.846
L166.798 287.639
L176.165 285.608
L185.532 284.432
L194.899 283.683
L204.267 283.79
L213.634 284.218
L223.001 284.645
L232.368 285.501
L241.736 286.142
L251.103 287.104
L260.47 287.96" style="fill:none;stroke:#8b0000;stroke-width:0.5;"/>
   </g>
   <g id="line2d_38">
    <path clip-path="url(#p1b7b43d6de)" d="
M63.7577 332.327
L73.125 332.968
L82.4923 333.717
L91.8595 334.679
L101.227 335.213
L110.594 335.962
L119.961 336.71
L129.329 337.138
L138.696 337.031
L148.063 336.283
L157.43 334.679
L166.798 333.289
L176.165 331.899
L185.532 330.937
L194.899 330.509
L204.267 330.509
L213.634 330.616
L223.001 331.044
L232.368 331.365
L241.736 331.685
L251.103 332.327
L260.47 332.861" style="fill:none;stroke:#ee82ee;stroke-width:0.5;"/>
   </g>
   <g id="line2d_39">
    <path clip-path="url(#p1b7b43d6de)" d="
M63.7577 374.984
L73.125 374.984
L82.4923 375.518
L91.8595 375.732
L101.227 375.732
L110.594 376.587
L119.961 376.801
L129.329 377.122
L138.696 376.587
L148.063 375.518
L157.43 374.128
L166.798 372.525
L176.165 370.921
L185.532 369.317
L194.899 369.638
L204.267 368.569
L213.634 368.569
L223.001 368.569
L232.368 368.89
L241.736 368.569
L251.103 369.638
L260.47 370.066" style="fill:none;stroke:#00008b;stroke-width:0.5;"/>
   </g>
   <g id="matplotlib.axis_5">
    <g id="xtick_7">
     <g id="line2d_40">
      <g>
       <use style="stroke:#000000;stroke-linecap:butt;stroke-width:0.5;" x="119.961260331" xlink:href="#m0012dd4eef" y="396.9"/>
      </g>
     </g>
     <g id="line2d_41">
      <g>
       <use style="stroke:#000000;stroke-linecap:butt;stroke-width:0.5;" x="119.961260331" xlink:href="#m476344969c" y="236.536363636"/>
      </g>
     </g>
     <g id="text_16">
      <!-- 6 -->
      <g transform="translate(116.940635331 409.80625)scale(0.12 -0.12)">
       <use xlink:href="#DejaVuSans-36"/>
      </g>
     </g>
    </g>
    <g id="xtick_8">
     <g id="line2d_42">
      <g>
       <use style="stroke:#000000;stroke-linecap:butt;stroke-width:0.5;" x="176.164772727" xlink:href="#m0012dd4eef" y="396.9"/>
      </g>
     </g>
     <g id="line2d_43">
      <g>
       <use style="stroke:#000000;stroke-linecap:butt;stroke-width:0.5;" x="176.164772727" xlink:href="#m476344969c" y="236.536363636"/>
      </g>
     </g>
     <g id="text_17">
      <!-- 12 -->
      <g transform="translate(169.789772727 409.80625)scale(0.12 -0.12)">
       <use xlink:href="#DejaVuSans-31"/>
       <use x="63.623046875" xlink:href="#DejaVuSans-32"/>
      </g>
     </g>
    </g>
    <g id="xtick_9">
     <g id="line2d_44">
      <g>
       <use style="stroke:#000000;stroke-linecap:butt;stroke-width:0.5;" x="232.368285124" xlink:href="#m0012dd4eef" y="396.9"/>
      </g>
     </g>
     <g id="line2d_45">
      <g>
       <use style="stroke:#000000;stroke-linecap:butt;stroke-width:0.5;" x="232.368285124" xlink:href="#m476344969c" y="236.536363636"/>
      </g>
     </g>
     <g id="text_18">
      <!-- 18 -->
      <g transform="translate(225.802972624 409.80625)scale(0.12 -0.12)">
       <use xlink:href="#DejaVuSans-31"/>
       <use x="63.623046875" xlink:href="#DejaVuSans-38"/>
      </g>
     </g>
    </g>
    <g id="text_19">
     <!-- hours -->
     <defs>
      <path d="
M30.6094 48.3906
Q23.3906 48.3906 19.1875 42.75
Q14.9844 37.1094 14.9844 27.2969
Q14.9844 17.4844 19.1562 11.8438
Q23.3438 6.20312 30.6094 6.20312
Q37.7969 6.20312 41.9844 11.8594
Q46.1875 17.5312 46.1875 27.2969
Q46.1875 37.0156 41.9844 42.7031
Q37.7969 48.3906 30.6094 48.3906
M30.6094 56
Q42.3281 56 49.0156 48.375
Q55.7188 40.7656 55.7188 27.2969
Q55.7188 13.875 49.0156 6.21875
Q42.3281 -1.42188 30.6094 -1.42188
Q18.8438 -1.42188 12.1719 6.21875
Q5.51562 13.875 5.51562 27.2969
Q5.51562 40.7656 12.1719 48.375
Q18.8438 56 30.6094 56" id="DejaVuSans-6f"/>
      <path d="
M44.2812 53.0781
L44.2812 44.5781
Q40.4844 46.5312 36.375 47.5
Q32.2812 48.4844 27.875 48.4844
Q21.1875 48.4844 17.8438 46.4375
Q14.5 44.3906 14.5 40.2812
Q14.5 37.1562 16.8906 35.375
Q19.2812 33.5938 26.5156 31.9844
L29.5938 31.2969
Q39.1562 29.25 43.1875 25.5156
Q47.2188 21.7812 47.2188 15.0938
Q47.2188 7.46875 41.1875 3.01562
Q35.1562 -1.42188 24.6094 -1.42188
Q20.2188 -1.42188 15.4531 -0.5625
Q10.6875 0.296875 5.42188 2
L5.42188 11.2812
Q10.4062 8.6875 15.2344 7.39062
Q20.0625 6.10938 24.8125 6.10938
Q31.1562 6.10938 34.5625 8.28125
Q37.9844 10.4531 37.9844 14.4062
Q37.9844 18.0625 35.5156 20.0156
Q33.0625 21.9688 24.7031 23.7812
L21.5781 24.5156
Q13.2344 26.2656 9.51562 29.9062
Q5.8125 33.5469 5.8125 39.8906
Q5.8125 47.6094 11.2812 51.7969
Q16.75 56 26.8125 56
Q31.7812 56 36.1719 55.2656
Q40.5781 54.5469 44.2812 53.0781" id="DejaVuSans-73"/>
      <path d="
M54.8906 33.0156
L54.8906 0
L45.9062 0
L45.9062 32.7188
Q45.9062 40.4844 42.875 44.3281
Q39.8438 48.1875 33.7969 48.1875
Q26.5156 48.1875 22.3125 43.5469
Q18.1094 38.9219 18.1094 30.9062
L18.1094 0
L9.07812 0
L9.07812 75.9844
L18.1094 75.9844
L18.1094 46.1875
Q21.3438 51.125 25.7031 53.5625
Q30.0781 56 35.7969 56
Q45.2188 56 50.0469 50.1719
Q54.8906 44.3438 54.8906 33.0156" id="DejaVuSans-68"/>
     </defs>
     <g transform="translate(160.133522727 424.095)scale(0.12 -0.12)">
      <use xlink:href="#DejaVuSans-68"/>
      <use x="63.37890625" xlink:href="#DejaVuSans-6f"/>
      <use x="124.560546875" xlink:href="#DejaVuSans-75"/>
      <use x="187.939453125" xlink:href="#DejaVuSans-72"/>
      <use x="229.052734375" xlink:href="#DejaVuSans-73"/>
     </g>
    </g>
   </g>
   <g id="matplotlib.axis_6">
    <g id="ytick_7">
     <g id="line2d_46">
      <g>
       <use style="stroke:#000000;stroke-linecap:butt;stroke-width:0.5;" x="73.125" xlink:href="#me8a85f7bf6" y="343.445454545"/>
      </g>
     </g>
     <g id="line2d_47">
      <g>
       <use style="stroke:#000000;stroke-linecap:butt;stroke-width:0.5;" x="279.204545455" xlink:href="#m1a32005dea" y="343.445454545"/>
      </g>
     </g>
     <g id="text_20">
      <!-- 10 -->
      <g transform="translate(55.97 347.813267045)scale(0.12 -0.12)">
       <use xlink:href="#DejaVuSans-31"/>
       <use x="63.623046875" xlink:href="#DejaVuSans-30"/>
      </g>
     </g>
    </g>
    <g id="ytick_8">
     <g id="line2d_48">
      <g>
       <use style="stroke:#000000;stroke-linecap:butt;stroke-width:0.5;" x="73.125" xlink:href="#me8a85f7bf6" y="289.990909091"/>
      </g>
     </g>
     <g id="line2d_49">
      <g>
       <use style="stroke:#000000;stroke-linecap:butt;stroke-width:0.5;" x="279.204545455" xlink:href="#m1a32005dea" y="289.990909091"/>
      </g>
     </g>
     <g id="text_21">
      <!-- 15 -->
      <g transform="translate(56.22125 294.279971591)scale(0.12 -0.12)">
       <use xlink:href="#DejaVuSans-31"/>
       <use x="63.623046875" xlink:href="#DejaVuSans-35"/>
      </g>
     </g>
    </g>
    <g id="ytick_9">
     <g id="line2d_50">
      <g>
       <use style="stroke:#000000;stroke-linecap:butt;stroke-width:0.5;" x="73.125" xlink:href="#me8a85f7bf6" y="236.536363636"/>
      </g>
     </g>
     <g id="line2d_51">
      <g>
       <use style="stroke:#000000;stroke-linecap:butt;stroke-width:0.5;" x="279.204545455" xlink:href="#m1a32005dea" y="236.536363636"/>
      </g>
     </g>
     <g id="text_22">
      <!-- 20 -->
      <g transform="translate(55.53125 240.904176136)scale(0.12 -0.12)">
       <use xlink:href="#DejaVuSans-32"/>
       <use x="63.623046875" xlink:href="#DejaVuSans-30"/>
      </g>
     </g>
    </g>
    <g id="text_23">
     <!-- water temperature -->
     <g transform="translate(50.53125 370.615056818)rotate(-90.0)scale(0.12 -0.12)">
      <use xlink:href="#DejaVuSans-77"/>
      <use x="81.787109375" xlink:href="#DejaVuSans-61"/>
      <use x="143.06640625" xlink:href="#DejaVuSans-74"/>
      <use x="182.275390625" xlink:href="#DejaVuSans-65"/>
      <use x="243.798828125" xlink:href="#DejaVuSans-72"/>
      <use x="284.912109375" xlink:href="#DejaVuSans-20"/>
      <use x="316.69921875" xlink:href="#DejaVuSans-74"/>
      <use x="355.908203125" xlink:href="#DejaVuSans-65"/>
      <use x="417.431640625" xlink:href="#DejaVuSans-6d"/>
      <use x="514.84375" xlink:href="#DejaVuSans-70"/>
      <use x="578.3203125" xlink:href="#DejaVuSans-65"/>
      <use x="639.84375" xlink:href="#DejaVuSans-72"/>
      <use x="680.95703125" xlink:href="#DejaVuSans-61"/>
      <use x="742.236328125" xlink:href="#DejaVuSans-74"/>
      <use x="781.4453125" xlink:href="#DejaVuSans-75"/>
      <use x="844.82421875" xlink:href="#DejaVuSans-72"/>
      <use x="883.6875" xlink:href="#DejaVuSans-65"/>
     </g>
    </g>
   </g>
   <g id="patch_13">
    <path d="
M73.125 236.536
L279.205 236.536" style="fill:none;stroke:#000000;"/>
   </g>
   <g id="patch_14">
    <path d="
M279.205 396.9
L279.205 236.536" style="fill:none;stroke:#000000;"/>
   </g>
   <g id="patch_15">
    <path d="
M73.125 396.9
L279.205 396.9" style="fill:none;stroke:#000000;"/>
   </g>
   <g id="patch_16">
    <path d="
M73.125 396.9
L73.125 236.536" style="fill:none;stroke:#000000;"/>
   </g>
   <g id="text_24">
    <!-- III -->
    <g transform="translate(251.102789256 236.536363636)scale(0.2 -0.2)">
     <use xlink:href="#DejaVuSans-49"/>
     <use x="29.4921875" xlink:href="#DejaVuSans-49"/>
     <use x="58.984375" xlink:href="#DejaVuSans-49"/>
    </g>
   </g>
  </g>
  <g id="axes_4">
   <g id="patch_17">
    <path d="
M320.42 396.9
L526.5 396.9
L526.5 236.536
L320.42 236.536
z
" style="fill:#ffffff;"/>
   </g>
   <g id="line2d_52">
    <path clip-path="url(#p7723b9bf4e)" d="
M311.053 250.328
L320.42 251.717
L329.788 253.214
L339.155 254.818
L348.522 256.315
L357.889 257.491
L367.257 257.811
L376.624 257.277
L385.991 255.78
L395.358 252.573
L404.726 250.648
L414.093 248.296
L423.46 246.372
L432.827 244.768
L442.195 244.661
L451.562 244.234
L460.929 242.951
L470.296 243.272
L479.664 244.02
L489.031 245.41
L498.398 246.265
L507.765 247.12" style="fill:none;stroke:#ffa500;stroke-width:0.5;"/>
   </g>
   <g id="line2d_53">
    <path clip-path="url(#p7723b9bf4e)" d="
M311.053 252.466
L320.42 253.856
L329.788 255.352
L339.155 256.849
L348.522 258.56
L357.889 259.736
L367.257 260.163
L376.624 259.522
L385.991 255.78
L395.358 251.183
L404.726 249.686
L414.093 247.334
L423.46 245.196
L432.827 244.982
L442.195 247.441
L451.562 247.013
L460.929 246.479
L470.296 246.586
L479.664 246.479
L489.031 247.013
L498.398 247.655
L507.765 248.724" style="fill:none;stroke:#ff0000;stroke-width:0.5;"/>
   </g>
   <g id="line2d_54">
    <path clip-path="url(#p7723b9bf4e)" d="
M311.053 285.715
L320.42 286.677
L329.788 287.853
L339.155 288.815
L348.522 289.884
L357.889 290.953
L367.257 291.595
L376.624 291.274
L385.991 289.456
L395.358 287.425
L404.726 285.394
L414.093 283.469
L423.46 282.4
L432.827 283.042
L442.195 282.721
L451.562 282.507
L460.929 282.4
L470.296 282.507
L479.664 282.721
L489.031 283.042
L498.398 283.683
L507.765 284.218" style="fill:none;stroke:#8b0000;stroke-width:0.5;"/>
   </g>
   <g id="line2d_55">
    <path clip-path="url(#p7723b9bf4e)" d="
M311.053 329.761
L320.42 330.296
L329.788 330.937
L339.155 331.579
L348.522 332.22
L357.889 332.861
L367.257 333.396
L376.624 333.396
L385.991 332.434
L395.358 331.365
L404.726 330.403
L414.093 329.547
L423.46 329.12
L432.827 329.333
L442.195 329.12
L451.562 329.333
L460.929 329.44
L470.296 329.761
L479.664 330.082
L489.031 330.296
L498.398 330.616
L507.765 330.937" style="fill:none;stroke:#ee82ee;stroke-width:0.5;"/>
   </g>
   <g id="line2d_56">
    <path clip-path="url(#p7723b9bf4e)" d="
M311.053 365.041
L320.42 365.255
L329.788 365.576
L339.155 365.789
L348.522 366.003
L357.889 366.324
L367.257 366.645
L376.624 366.859
L385.991 366.752
L395.358 366.538
L404.726 365.896
L414.093 365.255
L423.46 364.72
L432.827 364.186
L442.195 363.972
L451.562 363.972
L460.929 363.865
L470.296 363.758
L479.664 363.758
L489.031 363.651
L498.398 363.865
L507.765 363.865" style="fill:none;stroke:#00008b;stroke-width:0.5;"/>
   </g>
   <g id="matplotlib.axis_7">
    <g id="xtick_10">
     <g id="line2d_57">
      <g>
       <use style="stroke:#000000;stroke-linecap:butt;stroke-width:0.5;" x="367.256714876" xlink:href="#m0012dd4eef" y="396.9"/>
      </g>
     </g>
     <g id="line2d_58">
      <g>
       <use style="stroke:#000000;stroke-linecap:butt;stroke-width:0.5;" x="367.256714876" xlink:href="#m476344969c" y="236.536363636"/>
      </g>
     </g>
     <g id="text_25">
      <!-- 6 -->
      <g transform="translate(364.236089876 409.80625)scale(0.12 -0.12)">
       <use xlink:href="#DejaVuSans-36"/>
      </g>
     </g>
    </g>
    <g id="xtick_11">
     <g id="line2d_59">
      <g>
       <use style="stroke:#000000;stroke-linecap:butt;stroke-width:0.5;" x="423.460227273" xlink:href="#m0012dd4eef" y="396.9"/>
      </g>
     </g>
     <g id="line2d_60">
      <g>
       <use style="stroke:#000000;stroke-linecap:butt;stroke-width:0.5;" x="423.460227273" xlink:href="#m476344969c" y="236.536363636"/>
      </g>
     </g>
     <g id="text_26">
      <!-- 12 -->
      <g transform="translate(417.085227273 409.80625)scale(0.12 -0.12)">
       <use xlink:href="#DejaVuSans-31"/>
       <use x="63.623046875" xlink:href="#DejaVuSans-32"/>
      </g>
     </g>
    </g>
    <g id="xtick_12">
     <g id="line2d_61">
      <g>
       <use style="stroke:#000000;stroke-linecap:butt;stroke-width:0.5;" x="479.663739669" xlink:href="#m0012dd4eef" y="396.9"/>
      </g>
     </g>
     <g id="line2d_62">
      <g>
       <use style="stroke:#000000;stroke-linecap:butt;stroke-width:0.5;" x="479.663739669" xlink:href="#m476344969c" y="236.536363636"/>
      </g>
     </g>
     <g id="text_27">
      <!-- 18 -->
      <g transform="translate(473.098427169 409.80625)scale(0.12 -0.12)">
       <use xlink:href="#DejaVuSans-31"/>
       <use x="63.623046875" xlink:href="#DejaVuSans-38"/>
      </g>
     </g>
    </g>
    <g id="text_28">
     <!-- hours -->
     <g transform="translate(407.428977273 424.095)scale(0.12 -0.12)">
      <use xlink:href="#DejaVuSans-68"/>
      <use x="63.37890625" xlink:href="#DejaVuSans-6f"/>
      <use x="124.560546875" xlink:href="#DejaVuSans-75"/>
      <use x="187.939453125" xlink:href="#DejaVuSans-72"/>
      <use x="229.052734375" xlink:href="#DejaVuSans-73"/>
     </g>
    </g>
   </g>
   <g id="matplotlib.axis_8">
    <g id="ytick_10">
     <g id="line2d_63">
      <g>
       <use style="stroke:#000000;stroke-linecap:butt;stroke-width:0.5;" x="320.420454545" xlink:href="#me8a85f7bf6" y="343.445454545"/>
      </g>
     </g>
     <g id="line2d_64">
      <g>
       <use style="stroke:#000000;stroke-linecap:butt;stroke-width:0.5;" x="526.5" xlink:href="#m1a32005dea" y="343.445454545"/>
      </g>
     </g>
     <g id="text_29">
      <!-- 10 -->
      <g transform="translate(303.265454545 347.813267045)scale(0.12 -0.12)">
       <use xlink:href="#DejaVuSans-31"/>
       <use x="63.623046875" xlink:href="#DejaVuSans-30"/>
      </g>
     </g>
    </g>
    <g id="ytick_11">
     <g id="line2d_65">
      <g>
       <use style="stroke:#000000;stroke-linecap:butt;stroke-width:0.5;" x="320.420454545" xlink:href="#me8a85f7bf6" y="289.990909091"/>
      </g>
     </g>
     <g id="line2d_66">
      <g>
       <use style="stroke:#000000;stroke-linecap:butt;stroke-width:0.5;" x="526.5" xlink:href="#m1a32005dea" y="289.990909091"/>
      </g>
     </g>
     <g id="text_30">
      <!-- 15 -->
      <g transform="translate(303.516704545 294.279971591)scale(0.12 -0.12)">
       <use xlink:href="#DejaVuSans-31"/>
       <use x="63.623046875" xlink:href="#DejaVuSans-35"/>
      </g>
     </g>
    </g>
    <g id="ytick_12">
     <g id="line2d_67">
      <g>
       <use style="stroke:#000000;stroke-linecap:butt;stroke-width:0.5;" x="320.420454545" xlink:href="#me8a85f7bf6" y="236.536363636"/>
      </g>
     </g>
     <g id="line2d_68">
      <g>
       <use style="stroke:#000000;stroke-linecap:butt;stroke-width:0.5;" x="526.5" xlink:href="#m1a32005dea" y="236.536363636"/>
      </g>
     </g>
     <g id="text_31">
      <!-- 20 -->
      <g transform="translate(302.826704545 240.904176136)scale(0.12 -0.12)">
       <use xlink:href="#DejaVuSans-32"/>
       <use x="63.623046875" xlink:href="#DejaVuSans-30"/>
      </g>
     </g>
    </g>
   </g>
   <g id="patch_18">
    <path d="
M320.42 236.536
L526.5 236.536" style="fill:none;stroke:#000000;"/>
   </g>
   <g id="patch_19">
    <path d="
M526.5 396.9
L526.5 236.536" style="fill:none;stroke:#000000;"/>
   </g>
   <g id="patch_20">
    <path d="
M320.42 396.9
L526.5 396.9" style="fill:none;stroke:#000000;"/>
   </g>
   <g id="patch_21">
    <path d="
M320.42 396.9
L320.42 236.536" style="fill:none;stroke:#000000;"/>
   </g>
   <g id="text_32">
    <!-- IV -->
    <defs>
     <path d="
M28.6094 0
L0.78125 72.9062
L11.0781 72.9062
L34.1875 11.5312
L57.3281 72.9062
L67.5781 72.9062
L39.7969 0
z
" id="DejaVuSans-56"/>
    </defs>
    <g transform="translate(498.398243802 236.536363636)scale(0.2 -0.2)">
     <use xlink:href="#DejaVuSans-49"/>
     <use x="29.4921875" xlink:href="#DejaVuSans-56"/>
    </g>
   </g>
  </g>
 </g>
 <defs>
  <clipPath id="p7723b9bf4e">
   <rect height="160.363636364" width="206.079545455" x="320.420454545" y="236.536363636"/>
  </clipPath>
  <clipPath id="p82c402b4a7">
   <rect height="160.363636364" width="206.079545455" x="73.125" y="44.1"/>
  </clipPath>
  <clipPath id="p1b7b43d6de">
   <rect height="160.363636364" width="206.079545455" x="73.125" y="236.536363636"/>
  </clipPath>
  <clipPath id="pbe1cca2777">
   <rect height="160.363636364" width="206.079545455" x="320.420454545" y="44.1"/>
  </clipPath>
 </defs>
</svg>
